<svg xmlns="http://www.w3.org/2000/svg" xmlns:xlink="http://www.w3.org/1999/xlink" contentStyleType="text/css" data-diagram-type="DESCRIPTION" height="711px" preserveAspectRatio="none" style="width:560px;height:711px;background:#F8FAFC;" version="1.1" viewBox="0 0 560 711" width="560px" zoomAndPan="magnify"><?plantuml 1.2026.6?><defs/><g><rect fill="#F8FAFC" height="711" style="stroke:none;stroke-width:1;" width="560" x="0" y="0"/><g class="title" data-source-line="38"><text fill="#0F172A" font-family="sans-serif" font-size="20" font-weight="700" lengthAdjust="spacing" textLength="319.6875" x="119.3375" y="34.3359">Local-first PlantUML rendering</text></g><!--cluster skill--><g class="cluster" data-qualified-name="skill" data-source-line="40" id="ent0002"><rect fill="#FFFFFF" height="514.48" rx="5" ry="5" style="stroke:#CBD5E1;stroke-width:1;" width="351" x="12" y="182.8647"/><text fill="#334155" font-family="sans-serif" font-size="13" font-weight="700" lengthAdjust="spacing" textLength="96.2241" x="139.3879" y="197.433">plantuml-skill</text></g><!--entity puml--><g class="entity" data-qualified-name="skill.puml" data-source-line="41" id="ent0003"><rect fill="#EFF6FF" height="35.3105" rx="5" ry="5" style="stroke:#2563EB;stroke-width:1;" width="103.6431" x="227.18" y="216.8647"/><text fill="#1E3A8A" font-family="sans-serif" font-size="13" lengthAdjust="spacing" textLength="83.6431" x="237.18" y="239.433">Author .puml</text></g><!--entity helper--><g class="entity" data-qualified-name="skill.helper" data-source-line="42" id="ent0004"><rect fill="#EFF6FF" height="50.6211" rx="5" ry="5" style="stroke:#2563EB;stroke-width:1;" width="123.4478" x="171.28" y="327.1747"/><text fill="#1E3A8A" font-family="sans-serif" font-size="13" lengthAdjust="spacing" textLength="103.4478" x="181.28" y="349.743">Sandboxed local</text><text fill="#1E3A8A" font-family="sans-serif" font-size="13" lengthAdjust="spacing" textLength="85.2998" x="181.28" y="365.0536">render helper</text></g><!--entity cli--><g class="entity" data-qualified-name="skill.cli" data-source-line="43" id="ent0005"><rect fill="#EFF6FF" height="35.3105" rx="5" ry="5" style="stroke:#2563EB;stroke-width:1;" width="101.9736" x="28.01" y="438.7947"/><text fill="#1E3A8A" font-family="sans-serif" font-size="13" lengthAdjust="spacing" textLength="81.9736" x="38.01" y="461.363">PlantUML CLI</text></g><!--entity jar--><g class="entity" data-qualified-name="skill.jar" data-source-line="44" id="ent0006"><rect fill="#EFF6FF" height="35.3105" rx="5" ry="5" style="stroke:#2563EB;stroke-width:1;" width="171.1948" x="175.4" y="438.7947"/><text fill="#1E3A8A" font-family="sans-serif" font-size="13" lengthAdjust="spacing" textLength="151.1948" x="185.4" y="461.363">Configured plantuml.jar</text></g><!--entity validate--><g class="entity" data-qualified-name="skill.validate" data-source-line="45" id="ent0007"><rect fill="#ECFDF5" height="50.6211" rx="5" ry="5" style="stroke:#2563EB;stroke-width:1;" width="125.0347" x="198.48" y="515.1047"/><text fill="#1E3A8A" font-family="sans-serif" font-size="13" lengthAdjust="spacing" textLength="105.0347" x="208.48" y="537.673">Syntax + artifact</text><text fill="#1E3A8A" font-family="sans-serif" font-size="13" lengthAdjust="spacing" textLength="61.458" x="208.48" y="552.9836">validation</text></g><!--entity output--><g class="entity" data-qualified-name="skill.output" data-source-line="46" id="ent0008"><path d="M194.64,631.7247 C194.64,621.7247 260.9977,621.7247 260.9977,621.7247 C260.9977,621.7247 327.3553,621.7247 327.3553,631.7247 L327.3553,671.3458 C327.3553,681.3458 260.9977,681.3458 260.9977,681.3458 C260.9977,681.3458 194.64,681.3458 194.64,671.3458 L194.64,631.7247" fill="#ECFDF5" style="stroke:#0F766E;stroke-width:1;"/><path d="M194.64,631.7247 C194.64,641.7247 260.9977,641.7247 260.9977,641.7247 C260.9977,641.7247 327.3553,641.7247 327.3553,631.7247" fill="none" style="stroke:#0F766E;stroke-width:1;"/><text fill="#134E4A" font-family="sans-serif" font-size="13" lengthAdjust="spacing" textLength="62.791" x="204.64" y="658.293">Local files</text><text fill="#134E4A" font-family="sans-serif" font-size="13" lengthAdjust="spacing" textLength="112.7153" x="204.64" y="673.6036">.puml + PNG/SVG</text></g><!--entity user--><g class="entity" data-qualified-name="user" data-source-line="36" id="ent0001"><ellipse cx="278.9991" cy="63.5547" fill="#EFF6FF" rx="8" ry="8" style="stroke:#2563EB;stroke-width:1;"/><path d="M278.9991,71.5547 L278.9991,98.5547 M265.9991,79.5547 L291.9991,79.5547 M278.9991,98.5547 L265.9991,113.5547 M278.9991,98.5547 L291.9991,113.5547" fill="none" style="stroke:#2563EB;stroke-width:1;"/><text fill="#1E3A8A" font-family="sans-serif" font-size="13" lengthAdjust="spacing" textLength="68.6182" x="244.69" y="128.123">Agent user</text></g><!--entity kroki--><g class="entity" data-qualified-name="kroki" data-source-line="48" id="ent0009"><path d="M388.4777,331.9046 C390.6829,324.9718 397.1465,324.0207 401.6115,329.5166 C404.3165,322.9133 410.1828,323.6318 413.6036,328.7867 C417.4284,322.8908 422.0659,324.0435 425.6083,329.0962 C430.1928,321.889 434.6727,323.3967 439.1432,329.2146 C442.5708,323.1182 446.4217,323.5019 450.7071,328.3045 C453.5473,322.556 457.9706,320.3894 462.9913,325.9323 C467.4373,320.2016 471.9041,321.6638 475.283,327.1063 C479.4347,321.7386 483.3024,321.292 487.118,327.4514 C491.711,322.4323 496.8663,324.0177 499.4093,329.787 C503.5569,323.1189 510.4523,322.7051 513.9694,330.4251 C517.354,324.9627 521.7861,325.6697 525.2287,330.3609 C528.9097,324.4228 534.1707,323.8074 537.6566,330.552 C543.4514,334.1024 543.091,338.4681 538.1859,342.4928 C543.9641,345.2943 542.9063,349.8819 538.4521,352.9441 C545.3625,355.6365 544.9095,361.222 539.5921,365.0645 C544.287,369.022 543.2286,374.9017 537.3106,376.795 C533.616,383.072 529.1083,383.6641 524.4538,377.8127 C521.4755,384.5075 517.0625,384.7002 512.2156,379.7819 C508.9565,385.3897 503.1364,385.2878 499.6473,380.0485 C497.7621,386.5891 492.9023,387.6446 487.9305,383.4023 C484.2916,388.4746 479.0002,388.4458 475.4007,383.3537 C472.6216,390.034 466.8627,390.0646 462.8878,384.5842 C459.5999,389.914 453.7708,390.7354 450.2255,384.8754 C445.9059,390.6424 440.2665,389.6922 437.6878,383.1082 C433.0047,388.3739 428.0565,386.3108 425.5292,380.6987 C421.1129,386.4557 415.4172,386.5009 412.5713,379.1467 C407.5804,384.0766 402.7724,383.7723 400.1163,376.7198 C395.9251,382.3216 392.4502,381.3129 388.7079,376.24 C382.0145,375.1586 381.6091,370.5856 384.8319,365.8167 C378.4777,364.1198 377.0236,358.7015 381.9658,354.2142 C377.9793,349.0584 378.6653,343.9167 385.8343,342.4199 C381.457,338.3417 382.7585,333.4447 388.4777,331.9046" fill="#FFF7ED" style="stroke:#C2410C;stroke-width:1;"/><text fill="#7C2D12" font-family="sans-serif" font-size="13" lengthAdjust="spacing" textLength="74.8706" x="394.23" y="349.743">Public Kroki</text><text fill="#7C2D12" font-family="sans-serif" font-size="13" lengthAdjust="spacing" textLength="135.5352" x="394.23" y="365.0536">explicit approval only</text></g><!--link user to puml--><g class="link" data-entity-1="ent0001" data-entity-2="ent0003" data-link-type="dependency" data-source-line="50" id="lnk10"><path d="M279,131.1747 C279,158.9947 279,190.6347 279,211.6747" fill="none" id="user-to-puml" style="stroke:#64748B;stroke-width:1.1;"/><polygon fill="#64748B" points="279,216.6747,283,207.6747,279,211.6747,275,207.6747,279,216.6747" style="stroke:#64748B;stroke-width:1.1;stroke-linejoin:miter;stroke-miterlimit:10;"/><text fill="#475569" font-family="sans-serif" font-size="12" lengthAdjust="spacing" textLength="98.0332" x="280" y="163.4662">asks for diagram</text></g><!--link puml to helper--><g class="link" data-entity-1="ent0003" data-entity-2="ent0004" data-link-type="dependency" data-source-line="51" id="lnk11"><path d="M272.21,252.6247 C264.42,272.2847 253.4029,300.0467 244.5529,322.3667" fill="none" id="puml-to-helper" style="stroke:#64748B;stroke-width:1.1;"/><polygon fill="#64748B" points="242.71,327.0147,249.7457,320.1227,244.5529,322.3667,242.3089,317.174,242.71,327.0147" style="stroke:#64748B;stroke-width:1.1;stroke-linejoin:miter;stroke-miterlimit:10;"/><text fill="#475569" font-family="sans-serif" font-size="12" lengthAdjust="spacing" textLength="78.8086" x="265.12" y="291.7762">render locally</text></g><!--link helper to cli--><g class="link" data-entity-1="ent0004" data-entity-2="ent0005" data-link-type="dependency" data-source-line="52" id="lnk12"><path d="M195.72,378.1647 C167.59,396.7847 133.8887,419.104 109.0187,435.574" fill="none" id="helper-to-cli" style="stroke:#64748B;stroke-width:1.1;"/><polygon fill="#64748B" points="104.85,438.3347,114.5623,436.7004,109.0187,435.574,110.1452,430.0304,104.85,438.3347" style="stroke:#64748B;stroke-width:1.1;stroke-linejoin:miter;stroke-miterlimit:10;"/><text fill="#475569" font-family="sans-serif" font-size="12" lengthAdjust="spacing" textLength="35.1563" x="157" y="415.3962">prefer</text></g><!--link helper to jar--><g class="link" data-entity-1="ent0004" data-entity-2="ent0006" data-link-type="dependency" data-source-line="53" id="lnk13"><path d="M239.78,378.1647 C244.89,396.7847 250.4567,417.043 254.9767,433.513" fill="none" id="helper-to-jar" style="stroke:#64748B;stroke-width:1.1;"/><polygon fill="#64748B" points="256.3,438.3347,257.7755,428.597,254.9767,433.513,250.0607,430.7142,256.3,438.3347" style="stroke:#64748B;stroke-width:1.1;stroke-linejoin:miter;stroke-miterlimit:10;"/><text fill="#475569" font-family="sans-serif" font-size="12" lengthAdjust="spacing" textLength="112.0371" x="251.33" y="415.3962">configured fallback</text></g><!--link cli to validate--><g class="link" data-entity-1="ent0005" data-entity-2="ent0007" data-link-type="dependency" data-source-line="54" id="lnk14"><path d="M116.71,474.4347 C142.53,486.0547 172.6312,499.611 201.5112,512.621" fill="none" id="cli-to-validate" style="stroke:#64748B;stroke-width:1.1;"/><polygon fill="#64748B" points="206.07,514.6747,199.5071,507.3311,201.5112,512.621,196.2213,514.6251,206.07,514.6747" style="stroke:#64748B;stroke-width:1.1;stroke-linejoin:miter;stroke-miterlimit:10;"/></g><!--link jar to validate--><g class="link" data-entity-1="ent0006" data-entity-2="ent0007" data-link-type="dependency" data-source-line="55" id="lnk15"><path d="M261,474.4347 C261,486.0547 261,496.6647 261,509.6747" fill="none" id="jar-to-validate" style="stroke:#64748B;stroke-width:1.1;"/><polygon fill="#64748B" points="261,514.6747,265,505.6747,261,509.6747,257,505.6747,261,514.6747" style="stroke:#64748B;stroke-width:1.1;stroke-linejoin:miter;stroke-miterlimit:10;"/></g><!--link validate to output--><g class="link" data-entity-1="ent0007" data-entity-2="ent0008" data-link-type="dependency" data-source-line="56" id="lnk16"><path d="M261,566.1747 C261,582.5247 261,599.0247 261,616.2247" fill="none" id="validate-to-output" style="stroke:#64748B;stroke-width:1.1;"/><polygon fill="#64748B" points="261,621.2247,265,612.2247,261,616.2247,257,612.2247,261,621.2247" style="stroke:#64748B;stroke-width:1.1;stroke-linejoin:miter;stroke-miterlimit:10;"/><text fill="#475569" font-family="sans-serif" font-size="12" lengthAdjust="spacing" textLength="71.9004" x="262" y="598.3263">atomic write</text></g><!--link puml to kroki--><g class="link" data-entity-1="ent0003" data-entity-2="ent0009" data-link-type="dependency" data-source-line="57" id="lnk17"><path d="M318.02,252.6047 C330.12,258.3647 343.34,265.1247 355,272.1747 C379.54,287.0047 401.467,303.0001 421.627,318.7201" fill="none" id="puml-to-kroki" style="stroke:#64748B;stroke-width:1.1;stroke-dasharray:7,7;"/><polygon fill="#64748B" points="425.57,321.7947,420.9323,313.1061,421.627,318.7201,416.013,319.4148,425.57,321.7947" style="stroke:#64748B;stroke-width:1.1;stroke-linejoin:miter;stroke-miterlimit:10;"/><text fill="#475569" font-family="sans-serif" font-size="12" lengthAdjust="spacing" textLength="91.6113" x="398.53" y="284.7762">optional upload</text><text fill="#475569" font-family="sans-serif" font-size="12" lengthAdjust="spacing" textLength="81.2402" x="403.7155" y="298.9091">after approval</text></g><!--link kroki to validate--><g class="link" data-entity-1="ent0009" data-entity-2="ent0007" data-link-type="dependency" data-source-line="58" id="lnk18"><path d="M443.6,383.2647 C426.5,409.3347 399.18,447.1547 369,474.1047 C351.51,489.7147 334.1313,501.2317 314.7513,512.2017" fill="none" id="kroki-to-validate" style="stroke:#64748B;stroke-width:1.1;stroke-dasharray:7,7;"/><polygon fill="#64748B" points="310.4,514.6647,320.2027,513.7123,314.7513,512.2017,316.2619,506.7502,310.4,514.6647" style="stroke:#64748B;stroke-width:1.1;stroke-linejoin:miter;stroke-miterlimit:10;"/><text fill="#475569" font-family="sans-serif" font-size="12" lengthAdjust="spacing" textLength="101.8125" x="403.6" y="461.0463">validate response</text></g></g></svg>