<svg xmlns="http://www.w3.org/2000/svg" xmlns:xlink="http://www.w3.org/1999/xlink" contentStyleType="text/css" data-diagram-type="DESCRIPTION" height="277px" preserveAspectRatio="none" style="width:1068px;height:277px;background:#FFFFFF;" version="1.1" viewBox="0 0 1068 277" width="1068px" zoomAndPan="magnify"><?plantuml 1.2026.6?><defs/><g><!--cluster skill--><g class="cluster" data-qualified-name="skill" data-source-line="10" id="ent0002"><rect fill="#FFFFFF" height="162" rx="2.5" ry="2.5" style="stroke:#000000;stroke-width:1;" width="525.05" x="247.01" y="12"/><text fill="#000000" font-family="Verdana" font-size="14" font-weight="700" lengthAdjust="spacing" textLength="108.623" x="455.2235" y="28.0752">plantuml-skill</text></g><!--entity puml--><g class="entity" data-qualified-name="skill.puml" data-source-line="11" id="ent0003"><rect fill="#FFFFFF" height="37.0146" rx="2.5" ry="2.5" style="stroke:#000000;stroke-width:1;" width="129.6895" x="263.01" y="104.49"/><text fill="#000000" font-family="Verdana" font-size="14" lengthAdjust="spacing" textLength="109.6895" x="273.01" y="128.5652">Generate .puml</text></g><!--entity cli--><g class="entity" data-qualified-name="skill.cli" data-source-line="12" id="ent0004"><rect fill="#FFFFFF" height="37.0146" rx="2.5" ry="2.5" style="stroke:#000000;stroke-width:1;" width="150.04" x="580.36" y="48.49"/><text fill="#000000" font-family="Verdana" font-size="14" lengthAdjust="spacing" textLength="130.04" x="590.36" y="72.5652">Host PlantUML CLI</text></g><!--entity jar--><g class="entity" data-qualified-name="skill.jar" data-source-line="13" id="ent0005"><rect fill="#FFFFFF" height="37.0146" rx="2.5" ry="2.5" style="stroke:#000000;stroke-width:1;" width="201.3574" x="554.7" y="120.49"/><text fill="#000000" font-family="Verdana" font-size="14" lengthAdjust="spacing" textLength="181.3574" x="564.7" y="144.5652">Host plantuml.jar fallback</text></g><!--entity user--><g class="entity" data-qualified-name="user" data-source-line="8" id="ent0001"><ellipse cx="50.5049" cy="92.99" fill="#FFFFFF" rx="8" ry="8" style="stroke:#000000;stroke-width:1;"/><path d="M50.5049,100.99 L50.5049,127.99 M37.5049,108.99 L63.5049,108.99 M50.5049,127.99 L37.5049,142.99 M50.5049,127.99 L63.5049,142.99" fill="none" style="stroke:#000000;stroke-width:1;"/><text fill="#000000" font-family="Verdana" font-size="14" lengthAdjust="spacing" textLength="79.0098" x="11" y="159.0652">Codex user</text></g><!--entity output--><g class="entity" data-qualified-name="output" data-source-line="16" id="ent0006"><path d="M896.06,80.48 C896.06,70.48 969.8393,70.48 969.8393,70.48 C969.8393,70.48 1043.6186,70.48 1043.6186,80.48 L1043.6186,123.5093 C1043.6186,133.5093 969.8393,133.5093 969.8393,133.5093 C969.8393,133.5093 896.06,133.5093 896.06,123.5093 L896.06,80.48" fill="#FFFFFF" style="stroke:#000000;stroke-width:1;"/><path d="M896.06,80.48 C896.06,90.48 969.8393,90.48 969.8393,90.48 C969.8393,90.48 1043.6186,90.48 1043.6186,80.48" fill="none" style="stroke:#000000;stroke-width:1;"/><text fill="#000000" font-family="Verdana" font-size="14" lengthAdjust="spacing" textLength="68.9951" x="906.06" y="108.5552">Local files</text><text fill="#000000" font-family="Verdana" font-size="14" lengthAdjust="spacing" textLength="127.5586" x="906.06" y="125.5698">.puml + PNG/SVG</text></g><!--entity kroki--><g class="entity" data-qualified-name="kroki" data-source-line="17" id="ent0007"><path d="M574.2657,201.3449 C577.4415,195.6303 583.0981,194.1417 586.8803,200.7229 C589.7181,195.7269 594.5071,194.9249 597.4787,200.5899 C600.0138,194.0775 605.9985,192.8811 610.6466,198.2477 C613.5765,193.8253 617.0021,193.0742 620.6526,197.4259 C624.0111,191.3965 628.5627,191.0069 632.6653,196.6609 C636.9,190.7475 640.6713,190.602 645.2325,196.3077 C647.6343,189.9769 653.3649,190.3887 656.8789,195.1388 C660.9944,189.8358 664.6633,190.908 667.4297,196.4512 C670.7546,190.6039 676.9329,190.1744 680.2166,196.4946 C684.4769,191.1002 689.6279,193.2062 691.9822,198.5777 C695.894,193.3622 700.8747,193.6841 703.2499,200.0701 C706.6479,195.1596 711.9718,195.2983 714.1982,201.251 C718.2543,194.5708 723.9581,196.7599 727.1226,202.2017 C730.1036,196.7775 734.3021,196.5813 737.5249,201.9691 C744.5261,203.5551 745.7512,209.1217 740.5413,213.8167 C747.4691,216.7064 748.46,221.0621 744.1538,227.0245 C747.7863,231.4185 747.4255,235.6841 741.2368,237.2864 C746.9303,242.6114 746.9372,248.2078 738.8045,251.0979 C735.0771,257.743 731.0954,257.1209 726.591,251.8975 C723.1229,258.2735 718.1843,257.3036 714.8165,251.7982 C712.2698,257.9857 707.6922,259.0881 703.3145,253.6023 C699.9501,259.9021 694.6633,260.6235 690.781,254.1089 C687.7393,258.8521 683.3196,260.1066 680.0539,254.3375 C676.5812,261.1582 672.5886,261.707 667.7264,255.6698 C664.6336,261.2956 660.9863,260.7819 657.1412,256.4712 C652.8772,262.5438 647.3657,262.6157 643.9162,255.6453 C640.2664,259.93 634.4361,259.1431 632.29,253.8247 C628.7199,258.7611 624.7885,258.4061 621.2172,253.826 C617.3891,258.2379 613.8729,258.4506 610.6654,253.1517 C606.1098,258.6518 601.8598,257.9863 598.2932,252.079 C593.5385,256.498 589.4418,255.9814 586.0677,250.3923 C581.3419,254.977 577.5755,255.4021 574.0499,249.0709 C568.4568,247.8868 567.3596,243.5683 570.4839,239.2265 C563.2886,237.8151 559.7954,232.4165 565.1611,225.9639 C560.9652,220.0347 563.0517,215.821 569.7573,214.1236 C565.1332,208.0666 567.3601,203.3341 574.2657,201.3449" fill="#F8D7DA" style="stroke:#000000;stroke-width:1;"/><text fill="#000000" font-family="Verdana" font-size="14" lengthAdjust="spacing" textLength="82.2227" x="580.44" y="222.0552">Public Kroki</text><text fill="#000000" font-family="Verdana" font-size="14" lengthAdjust="spacing" textLength="149.8711" x="580.44" y="239.0698">explicit approval only</text></g><!--link user to puml--><g class="link" data-entity-1="ent0001" data-entity-2="ent0003" data-link-type="dependency" data-source-line="19" id="lnk8"><path d="M90.37,123 C135.14,123 204.37,123 257.73,123" fill="none" id="user-to-puml" style="stroke:#000000;stroke-width:1;"/><polygon fill="#000000" points="262.73,123,253.73,119,257.73,123,253.73,127,262.73,123" style="stroke:#000000;stroke-width:1;stroke-linejoin:miter;stroke-miterlimit:10;"/><text fill="#000000" font-family="Verdana" font-size="13" lengthAdjust="spacing" textLength="109.77" x="121.01" y="120.0698">asks for diagram</text></g><!--link puml to cli--><g class="link" data-entity-1="ent0003" data-entity-2="ent0004" data-link-type="dependency" data-source-line="20" id="lnk9"><path d="M393.18,110.42 C403.06,108.56 413.14,106.69 422.7,105 C475.17,95.66 529.5427,86.7394 575.0127,79.4694" fill="none" id="puml-to-cli" style="stroke:#000000;stroke-width:1;"/><polygon fill="#000000" points="579.95,78.68,570.4314,76.1511,575.0127,79.4694,571.6944,84.0508,579.95,78.68" style="stroke:#000000;stroke-width:1;stroke-linejoin:miter;stroke-miterlimit:10;"/><text fill="#000000" font-family="Verdana" font-size="13" lengthAdjust="spacing" textLength="92.6187" x="427.7" y="84.7698">default render</text></g><!--link puml to jar--><g class="link" data-entity-1="ent0003" data-entity-2="ent0005" data-link-type="dependency" data-source-line="21" id="lnk10"><path d="M393.17,126.16 C439.12,128.42 496.846,131.2544 549.306,133.8344" fill="none" id="puml-to-jar" style="stroke:#000000;stroke-width:1;"/><polygon fill="#000000" points="554.3,134.08,545.5073,129.6427,549.306,133.8344,545.1144,137.6331,554.3,134.08" style="stroke:#000000;stroke-width:1;stroke-linejoin:miter;stroke-miterlimit:10;"/><text fill="#000000" font-family="Verdana" font-size="13" lengthAdjust="spacing" textLength="49.8862" x="449.2" y="124.7898">fallback</text></g><!--link cli to output--><g class="link" data-entity-1="ent0004" data-entity-2="ent0006" data-link-type="dependency" data-source-line="22" id="lnk11"><path d="M730.82,75.33 C780.73,80.92 841.1811,87.6932 890.8011,93.2532" fill="none" id="cli-to-output" style="stroke:#000000;stroke-width:1;"/><polygon fill="#000000" points="895.77,93.81,887.2714,88.8327,890.8011,93.2532,886.3806,96.7829,895.77,93.81" style="stroke:#000000;stroke-width:1;stroke-linejoin:miter;stroke-miterlimit:10;"/><text fill="#000000" font-family="Verdana" font-size="13" lengthAdjust="spacing" textLength="76.8638" x="789.06" y="79.4698">local output</text></g><!--link jar to output--><g class="link" data-entity-1="ent0005" data-entity-2="ent0006" data-link-type="dependency" data-source-line="23" id="lnk12"><path d="M756.4,127.79 C791.12,123.84 830.32,119.3 866.06,115 C875.61,113.84 880.6986,113.2302 890.6186,111.9902" fill="none" id="jar-to-output" style="stroke:#000000;stroke-width:1;"/><polygon fill="#000000" points="895.58,111.37,886.1534,108.5172,890.6186,111.9902,887.1456,116.4554,895.58,111.37" style="stroke:#000000;stroke-width:1;stroke-linejoin:miter;stroke-miterlimit:10;"/><text fill="#000000" font-family="Verdana" font-size="13" lengthAdjust="spacing" textLength="76.8638" x="789.06" y="112.0698">local output</text></g><!--link puml to kroki--><g class="link" data-entity-1="ent0003" data-entity-2="ent0007" data-link-type="dependency" data-source-line="24" id="lnk13"><path d="M359.16,141.83 C377.08,152.28 400.54,164.78 422.7,173 C468.4,189.95 516.4103,201.3842 560.1203,209.8042" fill="none" id="puml-to-kroki" style="stroke:#000000;stroke-width:1;stroke-dasharray:7,7;"/><polygon fill="#000000" points="565.03,210.75,556.9491,205.1198,560.1203,209.8042,555.4359,212.9754,565.03,210.75" style="stroke:#000000;stroke-width:1;stroke-linejoin:miter;stroke-miterlimit:10;"/><text fill="#000000" font-family="Verdana" font-size="13" lengthAdjust="spacing" textLength="100.4326" x="423.7" y="154.0698">optional upload</text><text fill="#000000" font-family="Verdana" font-size="13" lengthAdjust="spacing" textLength="91.876" x="427.9783" y="169.8691">after approval</text></g><?plantuml-src TP5DJnj138Rl_XLcEQA4Or4EI5LGGzMqYeJeAHTdPtOpNMSyceyMLF7VyGmGG88zUVq-O_krJ_BU7Ym69kSXJSu7YdJ07VNJ6ALuinIMYAVVslU6I7ioyi_v4GVYPDyelHo2UElpJRvdYz7scVp85e3ja34BHZVkCnfN9ISUWFgiJRgb67k79TdO8QKM01pVOwTJ-bmEFDDcp8rf4Vu7V6sBtSfw6obRd0Ub6rU3zz2rf8oRMl7svngNw--DwzbzWBqqdl-XMFrotK_ZDG4F08OoxIZfZ6lfYN5mRDFMj_vuXfjVg_ERtwlsGaeE9KFFKWnscx9Zr-EFA9FRUdiNzCzbf12Y_DL2ulc-FPigeNUukFfozHMWxWPdiyjc31TAJ0a7NQ9nDEeLeEKhe8vKDtQWmbcluOrkzQXMGukZ9QXmJJyDgGetEyypL_XpjTMSpo-VHrsWX7fT1KfW8RFrD6IT-iKRF080?></g></svg>